
<svg width="85px" height="33.6px" viewBox="0 0 1835 722" version="1.1" xmlns="http://www.w3.org/2000/svg" >
    <g id="Page-1" stroke="none" stroke-width="1" fill="#fff" fill-rule="evenodd">
        <path d="M0,576 L0,3 L103,3 L103,205 C103,205 158.042417,150.614701 228,152 C329,154 357,238 357,238 C357,238 416,159 520,159 C624,159 682,232 682,232 C682,232 734.986847,157.108852 839,159 C949,161 1007,240 1007,240 C1007,240 1068.08121,155.092386 1173,157 C1283,159 1342,240 1342,240 L1342,0 L1447,0 L1447,247 C1447,247 1495,156 1606,155 C1695.12168,154.197102 1733,209 1733,209 L1733,165 L1835,165 L1835,569 L1733,569 L1733,526 C1733,526 1690,579 1608,579 C1502,579 1447,483 1447,483 L1447,579 L1342,579 L1342,496 C1342,496 1290,579 1172,579 C1121,579 1081,559 1081,559 L1081,722 L976,722 L976,532 C976,532 923.0623,582.542428 839,581 C730,579 681,509 681,509 C681,509 627,581 518,581 C420,581 366,513 366,513 L366,576 L264,576 L264,360 C264,360 271.960257,245.228176 194,247 C106,249 104,354 104,354 L102,576 L0,576 Z M841.5,487 C901.422895,487 951,441 951,371 C951,301 905,253.159903 841.5,254 C781.581737,254.792711 732,298 732,371 C732,444 781.577105,487 841.5,487 Z M1175.5,485 C1235.4229,485 1285,439 1285,369 C1285,299 1239,251.159903 1175.5,252 C1115.58174,252.792711 1066,296 1066,369 C1066,442 1115.5771,485 1175.5,485 Z M1628.5,485.999993 C1687,485.999993 1738,439 1738,369 C1738,299 1695,249 1628.5,249 C1563.99339,249 1519,296 1519,369 C1519,442 1570,485.999993 1628.5,485.999993 Z M521.5,488 C581.422895,488 630,443 630,370 C630,297 581.422895,253 521.5,253 C461.577105,253 413,297 413,370 C413,443 461.577105,488 521.5,488 Z"></path>
    </g>
</svg>